[IMG]http://www.shotpix.com/images/74210303485332567353.jpg[/IMG]

General
Complete name                            : Carly Rae Jepsen - Call Me Maybe [Music Video] 720p [Sbyky].mp4
Format                                   : MPEG-4
Format profile                           : Base Media / Version 2
Codec ID                                 : mp42
File size                                : 54.2 MiB
Duration                                 : 3mn 19s
Overall bit rate mode                    : Variable
Overall bit rate                         : 2 282 Kbps
Encoded date                             : UTC 2012-02-29 23:20:29
Tagged date                              : UTC 2012-02-29 23:20:29
gsst                                     : 0
gstd                                     : 199320
gssd                                     : BB6B0280BHH1344718728067211

Video
ID                                       : 1
Format                                   : AVC
Format/Info                              : Advanced Video Codec
Format profile                           : High@L3.1
Format settings, CABAC                   : Yes
Format settings, ReFrames                : 1 frame
Codec ID                                 : avc1
Codec ID/Info                            : Advanced Video Coding
Duration                                 : 3mn 19s
Bit rate                                 : 2 132 Kbps
Maximum bit rate                         : 3 754 Kbps
Width                                    : 1 280 pixels
Height                                   : 720 pixels
Display aspect ratio                     : 16:9
Frame rate mode                          : Constant
Frame rate                               : 23.976 fps
Color space                              : YUV
Chroma subsampling                       : 4:2:0
Bit depth                                : 8 bits
Scan type                                : Progressive
Bits/(Pixel*Frame)                       : 0.096
Stream size                              : 50.6 MiB (93%)
Tagged date                              : UTC 2012-02-29 23:20:30

Audio
ID                                       : 2
Format                                   : AAC
Format/Info                              : Advanced Audio Codec
Format profile                           : LC
Codec ID                                 : 40
Duration                                 : 3mn 19s
Bit rate mode                            : Variable
Bit rate                                 : 148 Kbps
Maximum bit rate                         : 193 Kbps
Channel(s)                               : 2 channels
Channel positions                        : Front: L R
Sampling rate                            : 44.1 KHz
Compression mode                         : Lossy
Stream size                              : 3.51 MiB (6%)
Title                                    : IsoMedia File Produced by Google, 5-11-2011
Encoded date                             : UTC 2012-02-29 23:20:30
Tagged date                              : UTC 2012-02-29 23:20:30

Shared By Sbyky
[IMG]http://www.shotpix.com/images/93673952718153918459.gif[/IMG]
[IMG]http://www.shotpix.com/images/30389343628541615007.gif[/IMG]